# AST/ASF file generated using VICON BodyLanguage
# -----------------------------------------------
:version 1.10
:name VICON
:units
  mass 1.0
  length 0.45
  angle deg
:documentation
   .ast/.asf automatically generated from VICON data using
   VICON BodyBuilder and BodyLanguage model FoxedUp or BRILLIANT.MOD
:root
   order TX TY TZ RX RY RZ
   axis XYZ
   position 0 0 0  
   orientation 0 0 0 
:bonedata
  begin
     id 1 
     name lhipjoint
     direction 0.621036 -0.695554 0.361275 
     length 2.46325 
     axis 0 0 0  XYZ
  end
  begin
     id 2 
     name lfemur
     direction 0.34202 -0.939693 0  
     length 6.54784  
     axis 0 0 20  XYZ
    dof rx ry rz
    limits (-160.0 20.0)
           (-70.0 70.0)
           (-60.0 70.0)
  end
  begin
     id 3 
     name ltibia
     direction 0.34202 -0.939693 0   
     length 7.84737   
     axis 0 0 20   XYZ
    dof rx
    limits (-10.0 170.0)
  end
  begin
     id 4 
     name lfoot
     direction 0.0790693 -0.217241 0.97291   
     length 2.59747   
     axis -90 7.62852e-016 20   XYZ
    dof rx rz
    limits (-45.0 90.0)
           (-70.0 20.0)
  end
  begin
     id 5 
     name ltoes
     direction 1.53572e-011 -4.21898e-011 1   
     length 1.29919   
     axis -90 7.62852e-016 20   XYZ
    dof rx
    limits (-90.0 20.0)
  end
  begin
     id 6 
     name rhipjoint
     direction -0.602353 -0.708375 0.367935   
     length 2.41867  
     axis 0 0 0  XYZ 
  end
  begin
     id 7 
     name rfemur
     direction -0.34202 -0.939693 0   
     length 6.92065   
     axis 0 0 -20   XYZ
    dof rx ry rz
    limits (-160.0 20.0)
           (-70.0 70.0)
           (-70.0 60.0)
  end
  begin
     id 8 
     name rtibia
     direction -0.34202 -0.939693 0   
     length 7.88883   
     axis 0 0 -20   XYZ
    dof rx
    limits (-10.0 170.0)
 end
 begin
     id 9 
     name rfoot
     direction -0.0768692 -0.211196 0.974416   
     length 2.43714  
     axis -90 -7.62852e-016 -20   XYZ
    dof rx rz
    limits (-45.0 90.0)
           (-20.0 70.0)
  end
  begin
     id 10 
     name rtoes
     direction -1.53575e-011 -4.21933e-011 1   
     length 1.22113   
     axis -90 -7.62852e-016 -20   XYZ
    dof rx
    limits (-90.0 20.0)
  end
  begin
     id 11 
     name lowerback
     direction 0.0197937 0.98943 -0.143655   
     length 2.16931   
     axis 0 0 0   XYZ
    dof rx ry rz
    limits (-20.0 45.0)
           (-30.0 30.0)
           (-30.0 30.0)
  end
  begin
     id 12 
     name upperback
     direction -0.00183968 0.999975 0.00684288   
     length 2.17221   
     axis 0 0 0   XYZ
    dof rx ry rz
    limits (-20.0 45.0)
           (-30.0 30.0)
           (-30.0 30.0)
  end
  begin
     id 13 
     name thorax
     direction -0.00950244 0.997208 0.0740685   
     length 2.22549   
     axis 0 0 0   XYZ
    dof rx ry rz
    limits (-20.0 45.0)
           (-30.0 30.0)
           (-30.0 30.0)
  end
  begin
     id 14 
     name lowerneck
     direction 0.0218238 0.996215 0.0841425   
     length 1.77269   
     axis 0 0 0   XYZ
    dof rx ry rz
    limits (-20.0 45.0)
           (-30.0 30.0)
           (-30.0 30.0)
  end
  begin
     id 15 
     name upperneck
     direction -0.00430652 0.994214 -0.107332   
     length 1.76534   
     axis 0 0 0   XYZ
    dof rx ry rz
    limits (-20.0 45.0)
           (-30.0 30.0)
           (-30.0 30.0)
  end
  begin
     id 16
     name head
     direction -0.00328946 0.998959 -0.0454998  
     length 1.82634  
     axis 0 0 0   XYZ
    dof rx ry rz
    limits (-20.0 45.0)
           (-30.0 30.0)
           (-30.0 30.0)
  end
  begin
     id 17 
     name lclavicle
     direction 0.970962 0.239191 0.00450212  
     length 3.84872  
     axis 0 0 0   XYZ
    dof ry rz
    limits (-20.0 10.0)
           (0.0 20.0)
  end
  begin
     id 18 
     name lhumerus
     direction 1 -4.48966e-011 5.74696e-028   
     length 5.22771   
     axis 180 -30 -90   XYZ
    dof rx ry rz
    limits (-60.0 90.0)
           (-90.0 90.0)
           (-90.0 90.0)
  end
  begin
     id 19
     name lradius
     direction 1 -4.4896e-011 4.25109e-027   
     length 3.45251   
     axis 180 -30 -90   XYZ
    dof rx
    limits (-10.0 170.0)
  end
  begin
     id 20
     name lwrist
     direction 1 -4.48971e-011 1.15382e-027   
     length 1.72626   
     axis -5.52449e-016 90 90   XYZ
    dof ry
    limits (-180.0 0.0)
 end
  begin
     id 21 
     name lhand
     direction 1 -4.49034e-011 2.30765e-027   
     length 0.552119   
     axis -1.47248e-015 90 90   XYZ
    dof rx rz
    limits (-90.0 90.0)
           (-45.0 45.0)
  end
  begin
     id 22 
     name lfingers
     direction 1 -4.48951e-011 4.61529e-027   
     length 0.445133   
     axis -2.94495e-015 90 90   XYZ
    dof rx
    limits (0.0 90.0)
  end
  begin
     id 23
     name lthumb
     direction 0.707107 -6.34991e-011 0.707107   
     length 0.639124   
     axis -90 45 2.85299e-015   XYZ
    dof rx rz
    limits (-45.0 45.0)
           (-45.0 45.0)
  end
  begin
     id 24 
     name rclavicle
     direction -0.97424 0.222511 -0.0366699   
     length 3.73439  
     axis 0 0 0   XYZ 
    dof ry rz
    limits (-10.0 20.0)
           (-20.0 0.0)
  end
  begin
     id 25 
     name rhumerus
     direction -1 -4.48956e-011 -4.97258e-028  
     length 5.2398   
     axis 180 30 90   XYZ
    dof rx ry rz
    limits (-90.0 60.0)
           (-90.0 90.0)
           (-90.0 90.0)
  end
  begin
     id 26 
     name rradius
     direction -1 -4.4897e-011 -1.72611e-027   
     length 3.48042   
     axis 180 30 90   XYZ
    dof rx
    limits (-10.0 170.0)
  end
  begin
     id 27 
     name rwrist
     direction -1 -4.48976e-011 1.15382e-027   
     length 1.74021   
     axis -5.52449e-016 -90 -90   XYZ
    dof ry
    limits (-180.0 0.0)
  end
  begin
     id 28
     name rhand
     direction -1 -4.48963e-011 2.30765e-027   
     length 0.618713   
     axis -1.47248e-015 -90 -90   XYZ
    dof rx rz
    limits (-90.0 90.0)
           (-45.0 45.0)
  end
  begin
     id 29
     name rfingers
     direction -1 -4.4888e-011 4.61529e-027   
     length 0.498823   
     axis -2.94495e-015 -90 -90   XYZ
    dof rx
    limits (0.0 90.0)
  end
  begin
     id 30
     name rthumb
     direction -0.707107 -6.34968e-011 0.707107   
     length 0.716213   
     axis -90 -45 -2.85299e-015   XYZ
    dof rx rz
    limits (-45.0 45.0)
           (-45.0 45.0)
  end
:hierarchy
  begin
    root lhipjoint rhipjoint lowerback
    lhipjoint lfemur
    lfemur ltibia
    ltibia lfoot
    lfoot ltoes
    rhipjoint rfemur
    rfemur rtibia
    rtibia rfoot
    rfoot rtoes
    lowerback upperback
    upperback thorax
    thorax lowerneck lclavicle rclavicle
    lowerneck upperneck
    upperneck head
    lclavicle lhumerus
    lhumerus lradius
    lradius lwrist
    lwrist lhand lthumb
    lhand lfingers
    rclavicle rhumerus
    rhumerus rradius
    rradius rwrist
    rwrist rhand rthumb
    rhand rfingers
  end

#!OML:ASF G:\JayActor3\Patient Classification 1\Patient 1\Session 5\male.ASF
:FULLY-SPECIFIED
:DEGREES
224
root 46.2059 16.4055 -5.66079 -23.6005 83.9817 -22.2993
lowerback -1.94741 -0.806015 0.900797
upperback 1.60744 -1.09125 -0.343135
thorax 2.71749 -0.521599 -0.903365
lowerneck -9.6806 0.337616 2.29127
upperneck 15.4562 0.0660803 0.855064
head 6.28937 0.283161 -0.0949864
rclavicle -1.33683e-014 -1.19271e-015
rhumerus -32.4369 -8.61248 -85.5721
rradius 25.7606
rwrist 3.35843
rhand -18.7663 -5.70987
rfingers 7.12502
rthumb 7.5307 -35.5558
lclavicle -1.33683e-014 -1.19271e-015
lhumerus -30.2445 1.29428 85.4219
lradius 23.9571
lwrist 16.2062
lhand -17.1194 13.1913
lfingers 7.12502
lthumb 9.12012 42.9741
rfemur -2.94036 5.31252 20.5774
rtibia 55.1217
rfoot -6.76835 -6.8716
rtoes -10.1304
lfemur -5.85256 15.2484 -19.7138
ltibia 15.7624
lfoot -8.57654 -1.26957
ltoes 4.50518
225
root 46.1669 16.4042 -5.64772 -23.6203 83.9158 -22.3146
lowerback -2.01635 -0.787333 0.971165
upperback 1.58604 -1.06915 -0.354167
thorax 2.73333 -0.509201 -0.954104
lowerneck -9.66279 0.34777 2.29369
upperneck 15.4332 0.081553 0.846001
head 6.27908 0.289627 -0.0970699
rclavicle -1.73129e-014 -4.37326e-015
rhumerus -32.4318 -8.51493 -85.662
rradius 25.8908
rwrist 3.23948
rhand -18.7559 -5.72134
rfingers 7.12502
rthumb 7.54073 -35.5669
lclavicle -1.73129e-014 -4.37326e-015
lhumerus -30.2558 1.36908 85.3686
lradius 23.9059
lwrist 16.1428
lhand -17.1171 13.1743
lfingers 7.12502
lthumb 9.12234 42.957
rfemur -2.18129 5.50358 20.7111
rtibia 53.7241
rfoot -6.4318 -7.0155
rtoes -9.19379
lfemur -6.04836 15.216 -19.6457
ltibia 15.8857
lfoot -8.5008 -1.29463
ltoes 4.78295
226
root 46.1266 16.4025 -5.63376 -23.6069 83.8487 -22.3024
lowerback -2.08981 -0.768447 1.03547
upperback 1.56514 -1.04673 -0.364339
thorax 2.75244 -0.496742 -1.0006
lowerneck -9.64756 0.360971 2.29609
upperneck 15.4125 0.10118 0.836356
head 6.27002 0.298097 -0.0989892
rclavicle -1.80149e-015 4.77083e-015
rhumerus -32.4217 -8.40007 -85.7628
rradius 26.0351
rwrist 3.10345
rhand -18.749 -5.76017
rfingers 7.12502
rthumb 7.5474 -35.6055
lclavicle -1.80149e-015 4.77083e-015
lhumerus -30.2573 1.43976 85.315
lradius 23.8543
lwrist 16.0811
lhand -17.1181 13.1575
lfingers 7.12502
lthumb 9.12134 42.9403
rfemur -1.43071 5.69963 20.8532
rtibia 52.2946
rfoot -6.41658 -7.02683
rtoes -8.4572
lfemur -6.26144 15.1707 -19.5802
ltibia 16.0207
lfoot -8.42481 -1.29866
ltoes 5.01407
227
root 46.0856 16.4003 -5.61923 -23.5158 83.7787 -22.2138
lowerback -2.16989 -0.748109 1.09473
upperback 1.54768 -1.02229 -0.376771
thorax 2.77897 -0.483266 -1.04661
lowerneck -9.64344 0.374861 2.29987
upperneck 15.4003 0.121533 0.824039
head 6.26555 0.306917 -0.101893
rclavicle -1.80024e-014 -6.36111e-015
rhumerus -32.4033 -8.28002 -85.8709
rradius 26.1863
rwrist 2.96446
rhand -18.7379 -5.82252
rfingers 7.12502
rthumb 7.55815 -35.6675
lclavicle -1.80024e-014 -6.36111e-015
lhumerus -30.2574 1.50775 85.2616
lradius 23.8105
lwrist 16.0244
lhand -17.1077 13.1552
lfingers 7.12502
lthumb 9.13144 42.9375
rfemur -0.683921 5.89116 20.9909
rtibia 50.8605
rfoot -6.74232 -6.86194
rtoes -7.99642
lfemur -6.48522 15.1261 -19.5214
ltibia 16.1671
lfoot -8.35133 -1.28988
ltoes 5.19539
228
root 46.0435 16.398 -5.60406 -23.3957 83.7061 -22.1036
lowerback -2.25445 -0.727677 1.15266
upperback 1.52912 -0.9978 -0.389684
thorax 2.80697 -0.46978 -1.09238
lowerneck -9.6401 0.389892 2.30604
upperneck 15.3895 0.143411 0.809362
head 6.26172 0.316452 -0.105812
rclavicle -1.06598e-014 -7.95139e-016
rhumerus -32.3827 -8.14985 -85.987
rradius 26.3521
rwrist 2.8179
rhand -18.7299 -5.91275
rfingers 7.12502
rthumb 7.56589 -35.7574
lclavicle -1.06598e-014 -7.95139e-016
lhumerus -30.2657 1.56186 85.2101
lradius 23.7843
lwrist 15.9836
lhand -17.0979 13.1559
lfingers 7.12502
lthumb 9.14086 42.9378
rfemur 0.0455 6.06519 21.1263
rtibia 49.4536
rfoot -7.34559 -6.55802
rtoes -7.87554
lfemur -6.72486 15.0917 -19.4636
ltibia 16.3196
lfoot -8.27453 -1.28164
ltoes 5.34113
229
root 46.0005 16.3959 -5.58829 -23.2877 83.6297 -22.0109
lowerback -2.34515 -0.70706 1.21421
upperback 1.51211 -0.973387 -0.401628
thorax 2.84005 -0.456208 -1.13926
lowerneck -9.63746 0.401952 2.31364
upperneck 15.3745 0.162024 0.78772
head 6.25665 0.32383 -0.112461
rclavicle -2.29596e-014 -3.57812e-015
rhumerus -32.3586 -8.01567 -86.1076
rradius 26.5273
rwrist 2.67055
rhand -18.7218 -6.0114
rfingers 7.12502
rthumb 7.57372 -35.8558
lclavicle -2.29596e-014 -3.57812e-015
lhumerus -30.2749 1.60615 85.1619
lradius 23.7717
lwrist 15.9552
lhand -17.0868 13.1622
lfingers 7.12502
lthumb 9.15163 42.9436
rfemur 0.754183 6.21388 21.2611
rtibia 48.0986
rfoot -8.12239 -6.19954
rtoes -8.00511
lfemur -6.97322 15.0733 -19.4015
ltibia 16.4694
lfoot -8.1901 -1.27941
ltoes 5.45162
230
root 45.9567 16.3943 -5.57202 -23.2199 83.5487 -21.962
lowerback -2.4384 -0.687005 1.28351
upperback 1.49533 -0.950175 -0.412559
thorax 2.87474 -0.443065 -1.18949
lowerneck -9.6385 0.412569 2.32132
upperneck 15.3608 0.178555 0.765667
head 6.25261 0.330184 -0.119415
rclavicle -5.60014e-015 -1.98785e-015
rhumerus -32.3373 -7.87492 -86.2336
rradius 26.7137
rwrist 2.52124
rhand -18.7132 -6.12023
rfingers 7.12502
rthumb 7.58202 -35.9643
lclavicle -5.60014e-015 -1.98785e-015
lhumerus -30.2879 1.64231 85.1151
lradius 23.7717
lwrist 15.9362
lhand -17.0737 13.1718
lfingers 7.12502
lthumb 9.16422 42.9527
rfemur 1.44111 6.33141 21.3981
rtibia 46.8076
rfoot -8.96581 -5.88119
rtoes -8.28829
lfemur -7.22238 15.0657 -19.3315
ltibia 16.6075
lfoot -8.09496 -1.27694
ltoes 5.54144
231
root 45.9119 16.3932 -5.55494 -23.1653 83.4663 -21.9311
lowerback -2.53183 -0.668604 1.35188
upperback 1.47866 -0.929278 -0.422692
thorax 2.90966 -0.431082 -1.23845
lowerneck -9.63817 0.422792 2.3296
upperneck 15.3374 0.19418 0.744902
head 6.24525 0.336039 -0.126155
rclavicle -1.77943e-014 -3.57812e-015
rhumerus -32.3186 -7.71981 -86.3682
rradius 26.9116
rwrist 2.35943
rhand -18.6951 -6.23678
rfingers 7.12502
rthumb 7.59949 -36.0803
lclavicle -1.77943e-014 -3.57812e-015
lhumerus -30.3042 1.66829 85.0679
lradius 23.7874
lwrist 15.935
lhand -17.0602 13.1781
lfingers 7.12502
lthumb 9.17722 42.9585
rfemur 2.1027 6.41748 21.5369
rtibia 45.5758
rfoot -9.78683 -5.69046
rtoes -8.58162
lfemur -7.47126 15.0623 -19.2573
ltibia 16.7279
lfoot -7.98308 -1.26916
ltoes 5.60089
232
root 45.8661 16.3926 -5.53716 -23.1197 83.3831 -21.9101
lowerback -2.6202 -0.650437 1.42103
upperback 1.46274 -0.90876 -0.433032
thorax 2.94254 -0.419261 -1.28798
lowerneck -9.6402 0.433938 2.33719
upperneck 15.3113 0.210025 0.730433
head 6.23746 0.342412 -0.130766
rclavicle -5.86104e-015 7.15625e-015
rhumerus -32.2995 -7.56347 -86.5058
rradius 27.1142
rwrist 2.19587
rhand -18.6801 -6.34423
rfingers 7.12502
rthumb 7.61389 -36.1872
lclavicle -5.86104e-015 7.15625e-015
lhumerus -30.3254 1.6817 85.0238
lradius 23.8201
lwrist 15.9475
lhand -17.0534 13.1853
lfingers 7.12502
lthumb 9.18377 42.9653
rfemur 2.74385 6.47992 21.681
rtibia 44.382
rfoot -10.5832 -5.59144
rtoes -8.80451
lfemur -7.71533 15.0533 -19.1794
ltibia 16.8305
lfoot -7.85542 -1.24872
ltoes 5.64672
233
root 45.8192 16.3923 -5.5187 -23.0563 83.3044 -21.8702
lowerback -2.69994 -0.633038 1.48499
upperback 1.44635 -0.88901 -0.444096
thorax 2.97017 -0.407951 -1.33521
lowerneck -9.64015 0.444101 2.34193
upperneck 15.2792 0.224335 0.720193
head 6.22742 0.348108 -0.133706
rclavicle 8.8863e-015 1.59028e-015
rhumerus -32.2846 -7.40725 -86.6429
rradius 27.3191
rwrist 2.03249
rhand -18.6592 -6.43563
rfingers 7.12502
rthumb 7.63409 -36.2778
lclavicle 8.8863e-015 1.59028e-015
lhumerus -30.3524 1.68012 84.983
lradius 23.8722
lwrist 15.979
lhand -17.0407 13.2064
lfingers 7.12502
lthumb 9.19606 42.9858
rfemur 3.37018 6.51986 21.8251
rtibia 43.198
rfoot -11.3797 -5.52149
rtoes -8.93462
lfemur -7.95473 15.0384 -19.1033
ltibia 16.9194
lfoot -7.71213 -1.21723
ltoes 5.68786
234
root 45.7707 16.392 -5.49947 -23.0273 83.2311 -21.8649
lowerback -2.76703 -0.617385 1.54732
upperback 1.42891 -0.871426 -0.45451
thorax 2.98959 -0.397831 -1.38076
lowerneck -9.63771 0.455861 2.35121
upperneck 15.2392 0.240627 0.706724
head 6.21447 0.354617 -0.138278
rclavicle -1.88224e-015 1.98785e-015
rhumerus -32.2714 -7.2497 -86.7821
rradius 27.5307
rwrist 1.86957
rhand -18.6375 -6.53098
rfingers 7.12502
rthumb 7.65507 -36.3724
lclavicle -1.88224e-015 1.98785e-015
lhumerus -30.3852 1.66956 84.9451
lradius 23.9407
lwrist 16.0185
lhand -17.0313 13.2354
lfingers 7.12502
lthumb 9.20509 43.0145
rfemur 3.98338 6.53982 21.9785
rtibia 41.997
rfoot -12.1551 -5.46622
rtoes -9.02024
lfemur -8.19901 15.0058 -19.0233
ltibia 17.0052
lfoot -7.55919 -1.16749
ltoes 5.74447
235
root 45.7209 16.3916 -5.47991 -23.0203 83.1628 -21.8787
lowerback -2.82096 -0.602552 1.6112
upperback 1.41035 -0.854866 -0.464158
thorax 3.00046 -0.388283 -1.42624
lowerneck -9.63429 0.465138 2.3578
upperneck 15.1967 0.253689 0.695055
head 6.20055 0.359512 -0.142109
rclavicle 1.62615e-014 9.93923e-015
rhumerus -32.2621 -7.09262 -86.9171
rradius 27.7417
rwrist 1.70729
rhand -18.61 -6.61546
rfingers 7.12502
rthumb 7.68159 -36.4559
lclavicle 1.62615e-014 9.93923e-015
lhumerus -30.4226 1.64145 84.9156
lradius 24.0183
lwrist 16.0743
lhand -17.0244 13.2737
lfingers 7.12502
lthumb 9.21184 43.0525
rfemur 4.59162 6.53384 22.1321
rtibia 40.763
rfoot -12.89 -5.40888
rtoes -9.11091
lfemur -8.44783 14.9454 -18.9421
ltibia 17.098
lfoot -7.40888 -1.09078
ltoes 5.75284
